<?xml version="1.0" encoding="utf-8"?>
<!-- Generator: Adobe Illustrator 18.1.1, SVG Export Plug-In . SVG Version: 6.00 Build 0)  -->
<svg version="1.1" id="Layer_1" xmlns="http://www.w3.org/2000/svg" xmlns:xlink="http://www.w3.org/1999/xlink" x="0px" y="0px"
	 viewBox="0 0 395.9 60" enable-background="new 0 0 395.9 60" xml:space="preserve">
<g>
	<g>
		<path fill="#FFFFFF" d="M30.3,0C13.7-0.1,0.1,13.2,0,29.8c-0.1,7,2.3,13.4,6.2,18.5c1.5-1.5,2.6-2.6,2.8-2.7
			c0.8-0.8,2.9-0.8,2.9-0.8s2.1-2,4.2-4.1c2.1-2.1-1.5-5.7-1.5-5.7l-5-5.1c19.6-19.3,33.9-13.3,33.9-13.3S49.2,31,29.6,50.2l-5-5.1
			c0,0-3.6-3.6-5.7-1.6c-2.1,2.1-4.2,4.1-4.2,4.1s0,2.1-0.8,2.9c-0.2,0.2-1.3,1.2-2.8,2.8c5.1,4.1,11.6,6.6,18.6,6.7
			C46.3,60.1,59.9,46.8,60,30.2C60.2,13.7,46.8,0.1,30.3,0z"/>
	</g>
</g>
<g>
	<g>
		<g>
			<path fill="#FFFFFF" d="M78.8,40.9c1.1,0,2-0.1,2.8-0.3c0.7-0.2,1.3-0.4,1.8-0.8c0.4-0.3,0.7-0.7,0.9-1.1
				c0.2-0.4,0.3-0.9,0.3-1.5c0-1.2-0.5-2.1-1.6-2.9c-1.1-0.8-3-1.6-5.6-2.5c-1.2-0.4-2.3-0.9-3.5-1.4c-1.2-0.5-2.2-1.2-3.1-2
				c-0.9-0.8-1.7-1.8-2.2-2.9c-0.6-1.1-0.9-2.5-0.9-4.2c0-1.6,0.3-3.1,0.9-4.4c0.6-1.3,1.5-2.4,2.6-3.3c1.1-0.9,2.5-1.6,4.1-2.1
				c1.6-0.5,3.4-0.7,5.4-0.7c2.4,0,4.4,0.3,6.2,0.8c1.7,0.5,3.2,1.1,4.3,1.7l-2.3,6.3c-1-0.5-2.1-1-3.3-1.3
				c-1.2-0.4-2.7-0.6-4.4-0.6c-1.9,0-3.3,0.3-4.1,0.8c-0.8,0.5-1.2,1.3-1.2,2.4c0,0.6,0.2,1.2,0.5,1.6c0.3,0.4,0.7,0.8,1.3,1.2
				c0.6,0.4,1.2,0.7,1.9,1c0.7,0.3,1.5,0.6,2.4,0.9c1.8,0.7,3.4,1.3,4.8,2c1.4,0.7,2.5,1.4,3.4,2.3c0.9,0.9,1.6,1.9,2,3.1
				c0.4,1.2,0.7,2.6,0.7,4.3c0,3.3-1.2,5.8-3.5,7.7c-2.3,1.8-5.8,2.7-10.4,2.7c-1.6,0-3-0.1-4.2-0.3c-1.3-0.2-2.4-0.4-3.3-0.7
				c-1-0.3-1.8-0.6-2.5-0.9c-0.7-0.3-1.3-0.6-1.8-0.9l2.2-6.3c1.1,0.6,2.4,1.1,3.9,1.6C74.7,40.7,76.6,40.9,78.8,40.9z"/>
			<path fill="#FFFFFF" d="M120.3,20.2c-1.5,5.2-3.1,10-4.8,14.5c-1.7,4.5-3.5,8.9-5.5,13.1c-0.7,1.5-1.4,2.8-2.1,3.9
				c-0.7,1.1-1.5,2-2.3,2.6c-0.9,0.7-1.8,1.2-2.9,1.5c-1.1,0.3-2.3,0.5-3.8,0.5c-1.2,0-2.3-0.1-3.3-0.3c-1-0.2-1.8-0.5-2.5-0.7
				l1.3-6.1c0.8,0.3,1.5,0.5,2.1,0.6s1.3,0.2,1.9,0.2c1.4,0,2.4-0.4,3.1-1.1c0.7-0.7,1.4-1.7,1.9-3c-1.7-3.4-3.5-7.2-5.2-11.4
				c-1.7-4.2-3.4-9-4.9-14.2h8.1c0.3,1.3,0.7,2.8,1.2,4.3c0.5,1.5,0.9,3.1,1.5,4.7c0.5,1.6,1,3.1,1.6,4.6c0.5,1.5,1,2.9,1.5,4.1
				c0.4-1.2,0.9-2.6,1.4-4.1c0.5-1.5,0.9-3,1.4-4.6c0.5-1.6,0.9-3.1,1.3-4.7c0.4-1.5,0.8-3,1.2-4.3H120.3z"/>
			<path fill="#FFFFFF" d="M131,41.5c1.4,0,2.4-0.1,3-0.4c0.6-0.3,0.9-0.8,0.9-1.6c0-0.6-0.4-1.1-1.1-1.6c-0.7-0.5-1.9-1-3.4-1.6
				c-1.2-0.4-2.3-0.9-3.2-1.4c-1-0.5-1.8-1-2.5-1.7c-0.7-0.7-1.2-1.5-1.6-2.4c-0.4-0.9-0.6-2-0.6-3.3c0-2.5,0.9-4.5,2.8-6
				c1.9-1.5,4.4-2.2,7.7-2.2c1.6,0,3.2,0.1,4.7,0.4c1.5,0.3,2.7,0.6,3.6,0.9l-1.3,5.9c-0.9-0.3-1.8-0.6-2.9-0.8
				c-1-0.2-2.2-0.4-3.5-0.4c-2.4,0-3.6,0.7-3.6,2c0,0.3,0.1,0.6,0.2,0.8c0.1,0.2,0.3,0.5,0.6,0.7c0.3,0.2,0.7,0.5,1.2,0.7
				c0.5,0.3,1.2,0.5,2,0.8c1.7,0.6,3,1.2,4.1,1.8c1.1,0.6,1.9,1.2,2.6,1.9c0.6,0.7,1.1,1.5,1.3,2.3c0.3,0.8,0.4,1.8,0.4,2.9
				c0,2.6-1,4.6-3,6c-2,1.4-4.8,2-8.4,2c-2.4,0-4.4-0.2-5.9-0.6c-1.6-0.4-2.7-0.7-3.3-1l1.3-6.2c1.3,0.5,2.6,0.9,4,1.2
				C128.3,41.4,129.7,41.5,131,41.5z"/>
			<path fill="#FFFFFF" d="M170.6,46.1c-0.7,0.2-1.5,0.4-2.3,0.6c-0.9,0.2-1.8,0.3-2.8,0.5c-1,0.1-2,0.2-3,0.3c-1,0.1-2,0.1-2.9,0.1
				c-2.2,0-4.2-0.3-5.9-1c-1.7-0.6-3.2-1.6-4.4-2.8c-1.2-1.2-2.1-2.7-2.7-4.4c-0.6-1.7-0.9-3.6-0.9-5.8c0-2.2,0.3-4.1,0.8-5.9
				c0.5-1.7,1.3-3.2,2.3-4.5c1-1.2,2.3-2.2,3.7-2.8c1.5-0.6,3.2-1,5.1-1c1.1,0,2,0.1,2.8,0.3c0.8,0.2,1.7,0.5,2.5,0.9V8.7l7.6-1.2
				V46.1z M153.4,33.4c0,2.3,0.5,4.2,1.6,5.7c1.1,1.4,2.6,2.1,4.7,2.1c0.7,0,1.3,0,1.9-0.1c0.6-0.1,1.1-0.1,1.4-0.2V27.1
				c-0.5-0.3-1.1-0.6-1.9-0.8c-0.8-0.2-1.5-0.3-2.3-0.3C155.3,26,153.4,28.5,153.4,33.4z"/>
			<path fill="#FFFFFF" d="M185.2,12.4c0,1.4-0.5,2.5-1.4,3.3c-0.9,0.8-2,1.2-3.2,1.2c-1.2,0-2.3-0.4-3.2-1.2
				c-0.9-0.8-1.4-1.9-1.4-3.3c0-1.4,0.4-2.5,1.4-3.3c0.9-0.8,2-1.2,3.2-1.2c1.2,0,2.3,0.4,3.2,1.2C184.8,10,185.2,11.1,185.2,12.4z
				 M184.5,47h-7.6V20.2h7.6V47z"/>
			<path fill="#FFFFFF" d="M213.6,43.6c0,4.4-1.1,7.6-3.3,9.8c-2.2,2.1-5.7,3.2-10.3,3.2c-1.6,0-3.3-0.1-4.9-0.4
				c-1.6-0.3-3.1-0.7-4.5-1.1l1.3-6.4c1.2,0.5,2.4,0.8,3.7,1.1c1.3,0.3,2.8,0.4,4.5,0.4c2.2,0,3.7-0.5,4.6-1.4
				c0.9-1,1.4-2.2,1.4-3.7v-1c-0.8,0.4-1.7,0.7-2.5,0.8c-0.9,0.2-1.8,0.3-2.8,0.3c-3.7,0-6.5-1.1-8.5-3.3c-2-2.2-3-5.3-3-9.2
				c0-2,0.3-3.8,0.9-5.4c0.6-1.6,1.5-3,2.7-4.2c1.2-1.2,2.6-2,4.3-2.7c1.7-0.6,3.6-0.9,5.8-0.9c0.9,0,1.9,0,2.8,0.1
				c1,0.1,1.9,0.2,2.9,0.3c1,0.1,1.9,0.3,2.7,0.5c0.9,0.2,1.6,0.4,2.3,0.6V43.6z M197,32.7c0,4.2,1.7,6.4,5.1,6.4
				c0.8,0,1.5-0.1,2.2-0.3c0.7-0.2,1.3-0.4,1.7-0.7V25.9c-0.4-0.1-0.8-0.1-1.3-0.2c-0.5-0.1-1.1-0.1-1.8-0.1c-2,0-3.5,0.7-4.5,2
				C197.5,29,197,30.7,197,32.7z"/>
			<path fill="#FFFFFF" d="M263.1,47V16.7L250.7,47h-1.1l-12.4-30.3V47h-2.9V13h4.3l11.6,28.3L261.7,13h4.4v34H263.1z"/>
			<path fill="#FFFFFF" d="M273,34.7c0-7.2,4.6-12.9,11.8-12.9c7.3,0,11.9,5.7,11.9,12.9s-4.6,12.9-11.9,12.9
				C277.6,47.6,273,41.8,273,34.7z M293.8,34.7c0-5.4-3.2-10.5-9-10.5c-5.7,0-9,5-9,10.5c0,5.5,3.3,10.5,9,10.5
				C290.6,45.2,293.8,40.2,293.8,34.7z"/>
			<path fill="#FFFFFF" d="M320.1,47V30.3c0-4.7-2.4-6.2-6-6.2c-3.2,0-6.4,2-8,4.2V47h-2.6V22.4h2.6v3.7c1.8-2.1,5.3-4.3,8.9-4.3
				c5,0,7.7,2.4,7.7,8V47H320.1z"/>
			<path fill="#FFFFFF" d="M330.3,16.5c0-1.1,1-2,2-2c1.1,0,2,0.9,2,2c0,1.1-0.9,2-2,2C331.3,18.5,330.3,17.6,330.3,16.5z M331,47
				V22.4h2.6V47H331z"/>
			<path fill="#FFFFFF" d="M342.4,42.2V24.7h-4.1v-2.3h4.1v-6.7h2.7v6.7h5v2.3h-5v17.1c0,2,0.8,3.4,2.5,3.4c1.2,0,2.2-0.6,2.8-1.2
				l1,2c-1,0.9-2.1,1.5-4.2,1.5C344,47.6,342.4,45.6,342.4,42.2z"/>
			<path fill="#FFFFFF" d="M354.6,34.7c0-7.2,4.6-12.9,11.8-12.9c7.3,0,11.9,5.7,11.9,12.9s-4.6,12.9-11.9,12.9
				C359.2,47.6,354.6,41.8,354.6,34.7z M375.4,34.7c0-5.4-3.2-10.5-9-10.5c-5.7,0-9,5-9,10.5c0,5.5,3.3,10.5,9,10.5
				C372.2,45.2,375.4,40.2,375.4,34.7z"/>
			<path fill="#FFFFFF" d="M385,47V22.4h2.6v4.2c2.1-2.8,4.9-4.7,8.3-4.7v2.9c-0.5-0.1-0.8-0.1-1.3-0.1c-2.5,0-5.9,2.2-7,4.4V47H385
				z"/>
		</g>
	</g>
</g>
</svg>
