<?xml version="1.0" encoding="utf-8"?>
<!-- Generator: Adobe Illustrator 18.1.1, SVG Export Plug-In . SVG Version: 6.00 Build 0)  -->
<svg version="1.1" id="Layer_1" xmlns="http://www.w3.org/2000/svg" xmlns:xlink="http://www.w3.org/1999/xlink" x="0px" y="0px"
	 viewBox="-304 5.3 290.8 121.7" enable-background="new -304 5.3 290.8 121.7" xml:space="preserve">
<g>
	<g>
		<path fill="#FFFFFF" d="M-188.7,78.4c1.2,0,2.3-0.1,3.1-0.3c0.8-0.2,1.5-0.5,2-0.8c0.5-0.4,0.8-0.8,1-1.3c0.2-0.5,0.3-1,0.3-1.6
			c0-1.3-0.6-2.3-1.8-3.2c-1.2-0.8-3.3-1.8-6.2-2.7c-1.3-0.5-2.6-1-3.8-1.6c-1.3-0.6-2.4-1.3-3.5-2.2c-1-0.9-1.8-2-2.5-3.2
			c-0.6-1.3-1-2.8-1-4.6c0-1.8,0.3-3.4,1-4.9c0.7-1.5,1.6-2.7,2.9-3.7c1.2-1,2.8-1.8,4.5-2.3c1.8-0.5,3.8-0.8,6-0.8
			c2.6,0,4.9,0.3,6.8,0.8c1.9,0.6,3.5,1.2,4.8,1.9l-2.5,7c-1.1-0.6-2.3-1.1-3.7-1.5c-1.3-0.4-3-0.7-4.8-0.7c-2.1,0-3.6,0.3-4.6,0.9
			c-0.9,0.6-1.4,1.5-1.4,2.7c0,0.7,0.2,1.3,0.5,1.8c0.3,0.5,0.8,0.9,1.4,1.3c0.6,0.4,1.3,0.8,2.2,1.1c0.8,0.3,1.7,0.7,2.7,1
			c2,0.8,3.8,1.5,5.3,2.2c1.5,0.7,2.8,1.6,3.8,2.6c1,1,1.7,2.1,2.2,3.5c0.5,1.3,0.7,2.9,0.7,4.8c0,3.7-1.3,6.5-3.8,8.5
			c-2.6,2-6.4,3-11.6,3c-1.7,0-3.3-0.1-4.7-0.3c-1.4-0.2-2.6-0.5-3.7-0.8c-1.1-0.3-2-0.6-2.8-1c-0.8-0.3-1.4-0.7-2-1l2.5-7
			c1.2,0.6,2.6,1.2,4.3,1.7C-193.3,78.1-191.2,78.4-188.7,78.4z"/>
		<path fill="#FFFFFF" d="M-142.9,55.3c-1.7,5.7-3.5,11.1-5.3,16.1c-1.9,5-3.9,9.9-6.1,14.6c-0.8,1.7-1.6,3.1-2.4,4.3
			c-0.8,1.2-1.7,2.2-2.6,2.9c-0.9,0.8-2,1.3-3.2,1.7c-1.2,0.4-2.6,0.5-4.2,0.5c-1.3,0-2.5-0.1-3.7-0.4c-1.1-0.2-2-0.5-2.7-0.8
			l1.5-6.7c0.9,0.3,1.6,0.5,2.3,0.6c0.7,0.1,1.4,0.2,2.2,0.2c1.5,0,2.7-0.4,3.5-1.2c0.8-0.8,1.5-1.9,2.1-3.4
			c-1.9-3.8-3.9-8-5.8-12.7c-1.9-4.7-3.7-10-5.4-15.8h8.9c0.4,1.5,0.8,3.1,1.3,4.8c0.5,1.7,1.1,3.5,1.6,5.2c0.6,1.8,1.1,3.5,1.7,5.1
			c0.6,1.7,1.1,3.2,1.7,4.5c0.5-1.4,1-2.9,1.5-4.5c0.5-1.7,1.1-3.4,1.6-5.1c0.5-1.8,1-3.5,1.5-5.2c0.5-1.7,0.9-3.3,1.3-4.8H-142.9z"
			/>
		<path fill="#FFFFFF" d="M-131.3,79.1c1.5,0,2.6-0.2,3.3-0.5c0.6-0.3,1-0.9,1-1.8c0-0.7-0.4-1.3-1.2-1.8c-0.8-0.5-2.1-1.1-3.8-1.7
			c-1.3-0.5-2.5-1-3.6-1.5c-1.1-0.5-2-1.2-2.7-1.9c-0.8-0.7-1.3-1.6-1.8-2.6c-0.4-1-0.6-2.2-0.6-3.7c0-2.8,1-5,3.1-6.6
			c2.1-1.6,4.9-2.4,8.5-2.4c1.8,0,3.5,0.2,5.2,0.5c1.7,0.3,3,0.7,4,1l-1.5,6.6c-1-0.3-2-0.6-3.2-0.9c-1.2-0.3-2.4-0.4-3.9-0.4
			c-2.6,0-4,0.7-4,2.2c0,0.3,0.1,0.6,0.2,0.9c0.1,0.3,0.3,0.5,0.7,0.8c0.3,0.2,0.8,0.5,1.4,0.8c0.6,0.3,1.3,0.6,2.2,0.9
			c1.8,0.7,3.4,1.4,4.6,2c1.2,0.7,2.2,1.4,2.9,2.2c0.7,0.8,1.2,1.6,1.5,2.6c0.3,0.9,0.4,2,0.4,3.3c0,2.9-1.1,5.2-3.3,6.7
			c-2.2,1.5-5.3,2.3-9.4,2.3c-2.6,0-4.8-0.2-6.6-0.7s-3-0.8-3.7-1.1l1.4-6.8c1.4,0.6,2.9,1,4.4,1.3
			C-134.3,78.9-132.8,79.1-131.3,79.1z"/>
		<path fill="#FFFFFF" d="M-87.5,84.2c-0.8,0.2-1.6,0.4-2.6,0.7c-1,0.2-2,0.4-3.1,0.5c-1.1,0.2-2.2,0.3-3.3,0.4
			c-1.1,0.1-2.2,0.1-3.2,0.1c-2.5,0-4.6-0.4-6.6-1.1c-1.9-0.7-3.5-1.7-4.9-3.1c-1.3-1.3-2.3-3-3-4.9c-0.7-1.9-1-4-1-6.4
			c0-2.4,0.3-4.6,0.9-6.5c0.6-1.9,1.5-3.6,2.6-5c1.1-1.4,2.5-2.4,4.2-3.1c1.6-0.7,3.5-1.1,5.6-1.1c1.2,0,2.2,0.1,3.1,0.3
			c0.9,0.2,1.9,0.5,2.8,1V42.5l8.4-1.4V84.2z M-106.6,70c0,2.6,0.6,4.7,1.8,6.3c1.2,1.6,2.9,2.4,5.2,2.4c0.8,0,1.5,0,2.1-0.1
			c0.6-0.1,1.2-0.1,1.6-0.2V63c-0.5-0.3-1.2-0.6-2.1-0.8c-0.8-0.2-1.7-0.3-2.6-0.3C-104.6,61.9-106.6,64.6-106.6,70z"/>
		<path fill="#FFFFFF" d="M-71.6,46.7c0,1.5-0.5,2.8-1.5,3.7c-1,0.9-2.2,1.3-3.5,1.3c-1.4,0-2.5-0.4-3.5-1.3c-1-0.9-1.5-2.1-1.5-3.7
			c0-1.5,0.5-2.8,1.5-3.7c1-0.9,2.2-1.3,3.5-1.3c1.4,0,2.5,0.4,3.5,1.3C-72.1,44-71.6,45.2-71.6,46.7z M-72.4,85.1h-8.4V55.3h8.4
			V85.1z"/>
		<path fill="#FFFFFF" d="M-40.3,81.4c0,4.9-1.2,8.5-3.7,10.8c-2.5,2.4-6.3,3.5-11.5,3.5c-1.8,0-3.6-0.2-5.4-0.5
			c-1.8-0.3-3.5-0.7-5-1.3l1.5-7.1c1.3,0.5,2.7,0.9,4.2,1.2c1.5,0.3,3.1,0.5,5,0.5c2.4,0,4.1-0.5,5.1-1.6c1-1.1,1.5-2.4,1.5-4.1
			v-1.1c-0.9,0.4-1.8,0.7-2.8,0.9c-1,0.2-2,0.3-3.1,0.3c-4.1,0-7.3-1.2-9.5-3.7c-2.2-2.4-3.3-5.8-3.3-10.2c0-2.2,0.3-4.2,1-6
			c0.7-1.8,1.7-3.3,3-4.6c1.3-1.3,2.9-2.3,4.8-3c1.9-0.7,4-1,6.4-1c1,0,2.1,0,3.1,0.1c1.1,0.1,2.1,0.2,3.2,0.4
			c1.1,0.2,2.1,0.3,3,0.5c1,0.2,1.8,0.4,2.6,0.7V81.4z M-58.8,69.3c0,4.7,1.9,7.1,5.7,7.1c0.9,0,1.7-0.1,2.4-0.3
			c0.8-0.2,1.4-0.5,1.9-0.8V61.7c-0.4-0.1-0.9-0.1-1.5-0.2c-0.6-0.1-1.2-0.1-2-0.1c-2.2,0-3.9,0.7-5,2.2
			C-58.3,65.1-58.8,67-58.8,69.3z"/>
	</g>
</g>
<path fill="#FFFFFF" d="M-243.2,32.8c-18.4-0.2-33.5,14.7-33.6,33.1c-0.1,7.7,2.5,14.9,6.9,20.6c1.7-1.7,2.9-2.9,3.1-3
	c0.9-0.9,3.2-0.8,3.2-0.8s2.3-2.2,4.6-4.6c2.4-2.3-1.6-6.4-1.6-6.4l-5.6-5.7c21.8-21.4,37.6-14.8,37.6-14.8s6.4,16-15.4,37.4
	l-5.6-5.7c0,0-4-4-6.3-1.7c-2.4,2.3-4.6,4.6-4.6,4.6s0,2.3-0.9,3.2c-0.2,0.2-1.4,1.4-3.1,3.1c5.7,4.6,12.9,7.4,20.7,7.4
	c18.4,0.2,33.5-14.7,33.6-33.1C-210,48-224.8,33-243.2,32.8z"/>
</svg>
